<?xml version="1.0" encoding="UTF-8"?>
<svg width="32px" height="32px" viewBox="0 0 32 32" version="1.1" xmlns="http://www.w3.org/2000/svg" xmlns:xlink="http://www.w3.org/1999/xlink">
    <!-- Generator: Sketch 62 (91390) - https://sketch.com -->
    <title>Artboard</title>
    <desc>Created with Sketch.</desc>
    <g id="Artboard" stroke="none" stroke-width="1" fill="none" fill-rule="evenodd">
        <g id="Group">
            <rect id="Rectangle" x="0" y="0" width="32" height="32"></rect>
            <g id="chevron-next-gray" transform="translate(9.000000, 4.000000)" fill="#000000" fill-rule="nonzero">
                <path d="M0.324,1.737 C-0.0830338606,1.36365551 -0.110344491,0.731033861 0.263,0.324 C0.636344491,-0.0830338606 1.26896614,-0.110344491 1.676,0.263 L13.676,11.263 C13.8825273,11.4524034 14.0001073,11.719773 14.0001073,12 C14.0001073,12.280227 13.8825273,12.5475966 13.676,12.737 L1.676,23.737 C1.41269526,23.9785115 1.04054678,24.061206 0.699739277,23.9539332 C0.35893178,23.8466603 0.101242035,23.5657175 0.0237392774,23.2169332 C-0.0537634806,22.8681488 0.0606952602,22.5045115 0.324,22.263 L11.52,12 L0.324,1.737 Z" id="Path"></path>
            </g>
        </g>
    </g>
</svg>