<svg width="24" height="24" viewBox="0 0 24 24" fill="none" xmlns="http://www.w3.org/2000/svg">
<circle cx="12" cy="12" r="12" fill="#04A4A4"/>
<path d="M10.6677 12.6656C10.954 13.0485 11.3193 13.3652 11.7389 13.5944C12.1584 13.8236 12.6223 13.9599 13.0991 13.9941C13.576 14.0282 14.0546 13.9594 14.5025 13.7923C14.9504 13.6253 15.3571 13.3638 15.6951 13.0257L17.6954 11.0254C18.3027 10.3966 18.6387 9.55448 18.6311 8.68036C18.6235 7.80624 18.2729 6.97007 17.6548 6.35195C17.0367 5.73383 16.2005 5.38321 15.3264 5.37561C14.4523 5.36802 13.6101 5.70405 12.9814 6.31134L11.8345 7.45151" stroke="white" stroke-width="1.06683" stroke-linecap="round" stroke-linejoin="round"/>
<path d="M13.3347 11.3321C13.0484 10.9492 12.6831 10.6325 12.2635 10.4033C11.844 10.1741 11.3801 10.0378 10.9033 10.0036C10.4264 9.96948 9.94783 10.0383 9.49993 10.2054C9.05202 10.3724 8.64528 10.6339 8.30731 10.972L6.307 12.9723C5.69972 13.6011 5.36368 14.4432 5.37128 15.3173C5.37888 16.1915 5.72949 17.0276 6.34761 17.6458C6.96574 18.2639 7.80191 18.6145 8.67603 18.6221C9.55015 18.6297 10.3923 18.2936 11.0211 17.6864L12.1612 16.5462" stroke="white" stroke-width="1.06683" stroke-linecap="round" stroke-linejoin="round"/>
</svg>
