<svg width="32" height="32" viewBox="0 0 32 32" fill="none" xmlns="http://www.w3.org/2000/svg">
<path d="M18.6666 2.66667H7.99998C7.29274 2.66667 6.61446 2.94762 6.11436 3.44772C5.61426 3.94782 5.33331 4.62609 5.33331 5.33334V26.6667C5.33331 27.3739 5.61426 28.0522 6.11436 28.5523C6.61446 29.0524 7.29274 29.3333 7.99998 29.3333H24C24.7072 29.3333 25.3855 29.0524 25.8856 28.5523C26.3857 28.0522 26.6666 27.3739 26.6666 26.6667V10.6667L18.6666 2.66667Z" stroke="black" stroke-width="1.6" stroke-linecap="round" stroke-linejoin="round"/>
<path d="M18.6667 2.66667V10.6667H26.6667" stroke="black" stroke-width="1.6" stroke-linecap="round" stroke-linejoin="round"/>
<path d="M21.3334 17.3333H10.6667" stroke="black" stroke-width="1.6" stroke-linecap="round" stroke-linejoin="round"/>
<path d="M21.3334 22.6667H10.6667" stroke="black" stroke-width="1.6" stroke-linecap="round" stroke-linejoin="round"/>
<path d="M13.3334 12H12H10.6667" stroke="black" stroke-width="1.6" stroke-linecap="round" stroke-linejoin="round"/>
</svg>
