<svg width="24" height="24" viewBox="0 0 24 24" fill="none" xmlns="http://www.w3.org/2000/svg">
  <circle cx="12" cy="12" r="10.2" stroke="#000000" stroke-width="1.6" />
  <path d="M13.7586 13.5631H15.069M15.069 13.5631C14.5173 13.5631 14.5173 13.5631 15.069 13.5631ZM15.069 13.5631C15.069 13.5631 16.1724 13.5631 17.4138 13.5631C18.3104 13.5631 19 12.8835 19 12C19 11.1165 18.3104 10.4369 17.4138 10.4369C15.4138 10.4369 13.4828 10.4369 13.4828 10.4369V6.56311C13.4828 5.67961 12.7931 5 11.8966 5C11 5 10.3104 5.67961 10.3104 6.56311V10.3689" stroke="#000000" stroke-width="1.6" stroke-linecap="round" stroke-linejoin="round" />
  <path d="M10.3104 10.4369C10.3104 10.4369 7.82759 10.4369 6.58621 10.4369C5.68966 10.4369 5 11.1165 5 12C5 12.8835 5.68966 13.5631 6.58621 13.5631C8.58621 13.5631 10.5172 13.5631 10.5172 13.5631V17.4369C10.5172 18.3204 11.2069 19 12.1034 19C13 19 13.6897 18.3204 13.6897 17.4369V13.5631" stroke="#000000" stroke-width="1.6" stroke-linecap="round" stroke-linejoin="round" />
</svg>
