<svg width="32" height="32" viewBox="0 0 32 32" fill="none" xmlns="http://www.w3.org/2000/svg">
<path d="M16 32C7.1648 32 0 24.8352 0 16C0 7.1648 7.1648 0 16 0C24.8352 0 32 7.1648 32 16C32 24.8352 24.8352 32 16 32Z" fill="url(#paint0_linear)"/>
<path d="M15.9999 7.04642C18.9151 7.04642 19.2607 7.05602 20.4127 7.11042C21.4783 7.15842 22.0575 7.33762 22.4415 7.48802C22.9503 7.68642 23.3151 7.92322 23.6959 8.30402C24.0767 8.68482 24.3135 9.04962 24.5119 9.55842C24.6623 9.94242 24.8383 10.5216 24.8895 11.5872C24.9407 12.7392 24.9535 13.0848 24.9535 16C24.9535 18.9152 24.9439 19.2608 24.8895 20.4128C24.8415 21.4784 24.6623 22.0576 24.5119 22.4416C24.3135 22.9504 24.0767 23.3152 23.6959 23.696C23.3151 24.0768 22.9503 24.3136 22.4415 24.512C22.0575 24.6624 21.4783 24.8384 20.4127 24.8896C19.2607 24.9408 18.9151 24.9536 15.9999 24.9536C13.0847 24.9536 12.7391 24.944 11.5871 24.8896C10.5215 24.8416 9.94233 24.6624 9.55833 24.512C9.04953 24.3136 8.68473 24.0768 8.30393 23.696C7.92313 23.3152 7.68633 22.9504 7.48793 22.4416C7.33753 22.0576 7.16153 21.4784 7.11033 20.4128C7.05913 19.2608 7.04633 18.9152 7.04633 16C7.04633 13.0848 7.05593 12.7392 7.11033 11.5872C7.15833 10.5216 7.33753 9.94242 7.48793 9.55842C7.68633 9.04962 7.92313 8.68482 8.30393 8.30402C8.68473 7.92322 9.04953 7.68642 9.55833 7.48802C9.94233 7.33762 10.5215 7.16162 11.5871 7.11042C12.7391 7.05602 13.0847 7.04642 15.9999 7.04642ZM15.9999 5.07842C13.0335 5.07842 12.6623 5.09122 11.4975 5.14562C10.3359 5.20002 9.54233 5.38242 8.84473 5.65442C8.12793 5.92962 7.51673 6.30402 6.91193 6.91202C6.30393 7.52002 5.93273 8.12802 5.65113 8.84802C5.38233 9.54242 5.19673 10.336 5.14233 11.5008C5.08793 12.6656 5.07513 13.0368 5.07513 16.0032C5.07513 18.9696 5.08793 19.3408 5.14233 20.5056C5.19673 21.6672 5.37913 22.4608 5.65113 23.1584C5.92953 23.872 6.30393 24.4832 6.91193 25.088C7.51993 25.696 8.12793 26.0672 8.84793 26.3488C9.54233 26.6176 10.3359 26.8032 11.5007 26.8576C12.6655 26.912 13.0367 26.9248 16.0031 26.9248C18.9695 26.9248 19.3407 26.912 20.5055 26.8576C21.6671 26.8032 22.4607 26.6208 23.1583 26.3488C23.8719 26.0704 24.4831 25.696 25.0879 25.088C25.6959 24.48 26.0671 23.872 26.3487 23.152C26.6175 22.4576 26.8031 21.664 26.8575 20.4992C26.9119 19.3344 26.9247 18.9632 26.9247 15.9968C26.9247 13.0304 26.9119 12.6592 26.8575 11.4944C26.8031 10.3328 26.6207 9.53922 26.3487 8.84162C26.0703 8.12802 25.6959 7.51682 25.0879 6.91202C24.4799 6.30402 23.8719 5.93282 23.1519 5.65122C22.4575 5.38242 21.6639 5.19682 20.4991 5.14242C19.3375 5.09122 18.9663 5.07842 15.9999 5.07842Z" fill="white"/>
<path d="M15.9999 10.3904C12.9023 10.3904 10.3903 12.9024 10.3903 16C10.3903 19.0976 12.9023 21.6096 15.9999 21.6096C19.0975 21.6096 21.6095 19.0976 21.6095 16C21.6095 12.9024 19.0975 10.3904 15.9999 10.3904ZM15.9999 19.6416C13.9903 19.6416 12.3583 18.0128 12.3583 16C12.3583 13.9872 13.9903 12.3584 15.9999 12.3584C18.0095 12.3584 19.6415 13.9872 19.6415 16C19.6415 18.0128 18.0095 19.6416 15.9999 19.6416Z" fill="white"/>
<path d="M21.8303 11.4816C22.5549 11.4816 23.1423 10.8942 23.1423 10.1696C23.1423 9.44503 22.5549 8.85763 21.8303 8.85763C21.1057 8.85763 20.5183 9.44503 20.5183 10.1696C20.5183 10.8942 21.1057 11.4816 21.8303 11.4816Z" fill="white"/>
<defs>
<linearGradient id="paint0_linear" x1="4.68629" y1="27.3137" x2="27.3137" y2="4.68629" gradientUnits="userSpaceOnUse">
<stop stop-color="#FFD521"/>
<stop offset="0.0551048" stop-color="#FFD020"/>
<stop offset="0.1241" stop-color="#FEC01E"/>
<stop offset="0.2004" stop-color="#FCA71B"/>
<stop offset="0.2821" stop-color="#FA8316"/>
<stop offset="0.3681" stop-color="#F85510"/>
<stop offset="0.4563" stop-color="#F51E09"/>
<stop offset="0.5" stop-color="#F30005"/>
<stop offset="0.5035" stop-color="#F20007"/>
<stop offset="0.5966" stop-color="#E1003B"/>
<stop offset="0.6879" stop-color="#D30067"/>
<stop offset="0.7757" stop-color="#C70088"/>
<stop offset="0.8589" stop-color="#BF00A0"/>
<stop offset="0.9357" stop-color="#BB00AF"/>
<stop offset="1" stop-color="#B900B4"/>
</linearGradient>
</defs>
</svg>
