<svg width="48" height="48" viewBox="0 0 48 48" fill="none" xmlns="http://www.w3.org/2000/svg">
<path d="M24 48C37.2548 48 48 37.2548 48 24C48 10.7452 37.2548 0 24 0C10.7452 0 0 10.7452 0 24C0 37.2548 10.7452 48 24 48Z" fill="#31C139"/>
<path d="M24.0001 11.5781C27.8157 11.6156 31.3313 12.6094 34.3876 14.9719C36.4501 16.5563 37.9688 18.5531 38.6532 21.1031C39.4501 24.0938 38.8782 26.85 37.172 29.4C35.9532 31.2094 34.3407 32.6344 32.6813 34.0125C30.0095 36.225 27.1407 38.1469 24.0845 39.7875C23.8126 39.9281 23.5313 40.0594 23.2407 40.1438C22.7626 40.275 22.4251 39.9656 22.5095 39.4781C22.547 39.2438 22.6688 39.0188 22.7251 38.7844C22.8751 38.0625 23.0532 37.3406 23.1376 36.6C23.2032 36.0375 22.9032 35.7938 22.3407 35.7469C18.872 35.4281 15.722 34.275 13.0595 31.9969C10.7532 30.0281 9.31883 27.5531 9.05633 24.5063C8.83133 21.8625 9.61883 19.4906 11.222 17.3906C13.4063 14.5406 16.3595 12.9094 19.7907 12.0656C21.1595 11.7188 22.5657 11.5594 24.0001 11.5781ZM23.7563 22.95C23.8595 23.0813 23.9157 23.1375 23.9532 23.1938C24.8626 24.4313 25.772 25.6688 26.6907 26.9063C26.9626 27.2719 27.3095 27.4125 27.6563 27.3C28.0032 27.1875 28.2001 26.9063 28.2001 26.4563C28.2001 24.5344 28.2001 22.6125 28.1907 20.6813C28.1907 20.2031 27.8438 19.8563 27.4032 19.8563C26.9626 19.8563 26.6251 20.2219 26.6251 20.7188C26.6251 21.7688 26.6251 22.8188 26.6157 23.8781C26.6157 23.9719 26.597 24.0563 26.5782 24.2156C26.4751 24.0938 26.4188 24.0188 26.372 23.9531C25.4813 22.7438 24.6001 21.5344 23.7095 20.3344C23.4001 19.9219 23.1095 19.7906 22.7345 19.9031C22.3501 20.025 22.1813 20.3156 22.1813 20.8406C22.172 22.6875 22.172 24.5344 22.172 26.3813C22.172 26.9625 22.4813 27.3094 22.9595 27.3188C23.447 27.3281 23.7563 26.9813 23.7657 26.4094C23.7751 25.7063 23.7563 24.9938 23.7563 24.2906C23.7563 23.8781 23.7563 23.4563 23.7563 22.95ZM30.8345 21.4406C31.5188 21.4406 32.1751 21.4406 32.8407 21.4406C33.3938 21.4406 33.7501 21.1313 33.7595 20.6719C33.7688 20.1844 33.422 19.8469 32.8595 19.8469C31.9595 19.8375 31.0688 19.8375 30.1688 19.8469C29.5313 19.8563 29.2407 20.1469 29.2313 20.8031C29.222 21.3656 29.2313 21.9281 29.2313 22.5C29.2313 23.8125 29.222 25.1156 29.222 26.4281C29.222 27.0375 29.5126 27.3281 30.1126 27.3281C31.0595 27.3281 32.0063 27.3281 32.9626 27.3281C33.347 27.3281 33.6001 27.1406 33.7313 26.8031C33.9282 26.3063 33.5157 25.7625 32.9438 25.7531C32.2407 25.7438 31.5376 25.7531 30.8251 25.7531C30.8251 25.275 30.8251 24.8531 30.8251 24.3938C31.5376 24.3938 32.2313 24.3938 32.9157 24.3938C33.4032 24.3938 33.7407 24.075 33.7595 23.6344C33.7782 23.175 33.4407 22.8375 32.9251 22.8188C32.7095 22.8094 32.4938 22.8188 32.2688 22.8188C31.7907 22.8188 31.3032 22.8188 30.8251 22.8188C30.8345 22.3219 30.8345 21.9094 30.8345 21.4406ZM15.8438 25.7531C15.8438 25.5563 15.8438 25.4063 15.8438 25.2563C15.8438 23.7563 15.8438 22.2563 15.8345 20.7563C15.8345 20.2031 15.5063 19.8563 15.047 19.8563C14.5876 19.8563 14.2688 20.2125 14.2688 20.7656C14.2595 22.65 14.2595 24.5344 14.2595 26.4188C14.2595 27.0188 14.5595 27.3094 15.1595 27.3188C16.0688 27.3188 16.9782 27.3188 17.8876 27.3188C18.4407 27.3188 18.7876 27.0188 18.797 26.55C18.8063 26.0813 18.422 25.7625 17.8595 25.7531C17.2126 25.7531 16.5657 25.7531 15.8438 25.7531ZM19.5001 23.5688H19.4907C19.4907 24.5156 19.4907 25.4625 19.4907 26.4188C19.4907 26.9625 19.8095 27.3094 20.2782 27.3188C20.747 27.3188 21.0657 26.9813 21.0657 26.4375C21.0657 24.525 21.0563 22.6219 21.047 20.7094C21.047 20.55 21.0095 20.3719 20.9251 20.2406C20.7282 19.9219 20.4188 19.8188 20.0626 19.9125C19.7157 20.0063 19.5095 20.2969 19.5001 20.7375C19.5001 21.675 19.5001 22.6219 19.5001 23.5688Z" fill="white"/>
</svg>
