<?xml version="1.0" encoding="UTF-8"?>
<svg width="32px" height="32px" viewBox="0 0 32 32" version="1.1" xmlns="http://www.w3.org/2000/svg" xmlns:xlink="http://www.w3.org/1999/xlink">
    <!-- Generator: Sketch 49 (51002) - http://www.bohemiancoding.com/sketch -->
    <title>log-out</title>
    <desc>Created with Sketch.</desc>
    <defs></defs>
    <g id="log-out" stroke="none" stroke-width="1" fill="none" fill-rule="evenodd">
        <path d="M23.5857864,17 L14,17 C13.4477153,17 13,16.5522847 13,16 C13,15.4477153 13.4477153,15 14,15 L23.5857864,15 L21.2928932,12.7071068 C20.9023689,12.3165825 20.9023689,11.6834175 21.2928932,11.2928932 C21.6834175,10.9023689 22.3165825,10.9023689 22.7071068,11.2928932 L26.7071068,15.2928932 C27.0976311,15.6834175 27.0976311,16.3165825 26.7071068,16.7071068 L22.7071068,20.7071068 C22.3165825,21.0976311 21.6834175,21.0976311 21.2928932,20.7071068 C20.9023689,20.3165825 20.9023689,19.6834175 21.2928932,19.2928932 L23.5857864,17 Z M19,27 C19.5522847,27 20,27.4477153 20,28 C20,28.5522847 19.5522847,29 19,29 L8,29 C6.34314575,29 5,27.6568542 5,26 L5,6 C5,4.34314575 6.34314575,3 8,3 L19,3 C19.5522847,3 20,3.44771525 20,4 C20,4.55228475 19.5522847,5 19,5 L8,5 C7.44771525,5 7,5.44771525 7,6 L7,26 C7,26.5522847 7.44771525,27 8,27 L19,27 Z" id="Combined-Shape" fill="#000000" fill-rule="nonzero"></path>
    </g>
</svg>