<?xml version="1.0" encoding="UTF-8"?>
<svg width="24px" height="24px" viewBox="0 0 24 24" version="1.1" xmlns="http://www.w3.org/2000/svg" xmlns:xlink="http://www.w3.org/1999/xlink">
    <!-- Generator: Sketch 55.2 (78181) - https://sketchapp.com -->
    <title>icon/pin-fill</title>
    <desc>Created with Sketch.</desc>
    <g id="icon/pin-fill" stroke="none" stroke-width="1" fill="none" fill-rule="evenodd">
        <g id="Icon-grid"></g>
        <g id="office-push-pin" transform="translate(3.000000, 3.000000)" fill="#FFFFFF" fill-rule="nonzero">
            <path d="M17.7675773,5.15050515 L12.753,0.135927835 C12.5719794,-0.0452783505 12.2780412,-0.0452783505 12.0970206,0.135927835 L12.0757732,0.157175258 C11.7682887,0.46456701 11.598866,0.873463918 11.598866,1.30824742 C11.598866,1.58836082 11.6700309,1.85715464 11.8022474,2.09551546 L6.55534021,6.59857732 C6.1537732,6.23969072 5.64123711,6.04326804 5.09836082,6.04326804 C4.51336082,6.04326804 3.96343299,6.27105155 3.54989691,6.68468041 L3.5184433,6.71613402 C3.33723711,6.89724742 3.33723711,7.191 3.5184433,7.3721134 L6.52258763,10.3762577 C2.31040206,14.9282784 0.201340206,17.2076907 0.195402062,17.2144948 C0.0344226804,17.3978351 0.0433298969,17.6743299 0.215628866,17.8474639 C0.305907216,17.9381134 0.424948454,17.9839485 0.544360825,17.9839485 C0.653195876,17.9839485 0.762309278,17.9459072 0.850082474,17.8691753 C0.855216495,17.8647216 3.13456701,15.7556598 7.68813402,11.5419897 L10.5313918,14.3852474 C10.6219485,14.4758969 10.7407113,14.5211753 10.8593814,14.5211753 C10.9780515,14.5211753 11.0969072,14.4758969 11.1873711,14.3852474 L11.2188247,14.3537938 C11.6324536,13.9402577 11.8602371,13.3902371 11.8602371,12.8053299 C11.8602371,12.2624536 11.6637216,11.7499175 11.3049278,11.3483505 L15.8079897,6.1014433 C16.0463505,6.23365979 16.3151443,6.30482474 16.5952577,6.30482474 C17.030134,6.30482474 17.4389381,6.13549485 17.7463299,5.82791753 L17.7675773,5.8066701 C17.9487835,5.62537113 17.9487835,5.33161856 17.7675773,5.15050515 Z" id="Path"></path>
        </g>
    </g>
</svg>