<svg width="32" height="32" viewBox="0 0 32 32" fill="none" xmlns="http://www.w3.org/2000/svg">
<path d="M16 0C24.8352 0 32 7.1648 32 16C32 24.8352 24.8352 32 16 32C7.1648 32 0 24.8352 0 16C0 7.1648 7.1648 0 16 0Z" fill="#1DA1F2"/>
<path d="M12.2881 24.128C19.8337 24.128 23.9649 17.8752 23.9649 12.4512C23.9649 12.2752 23.9649 12.096 23.9521 11.92C24.7553 11.3376 25.4497 10.6208 26.0001 9.79519C25.2513 10.128 24.4577 10.3456 23.6449 10.4416C24.5025 9.92959 25.1425 9.12319 25.4497 8.17279C24.6433 8.64959 23.7633 8.98879 22.8449 9.16799C21.2897 7.51679 18.6913 7.43679 17.0401 8.98879C15.9745 9.99039 15.5233 11.4848 15.8529 12.9088C12.5537 12.7424 9.47847 11.184 7.39527 8.62079C6.30727 10.496 6.86087 12.8928 8.66567 14.0992C8.01287 14.08 7.37287 13.904 6.80327 13.5872C6.80327 13.6032 6.80327 13.6224 6.80327 13.6384C6.80327 15.5904 8.17927 17.2736 10.0961 17.6608C9.49127 17.824 8.85767 17.8496 8.24327 17.7312C8.78087 19.4016 10.3201 20.5472 12.0769 20.5824C10.6241 21.7248 8.82887 22.3456 6.98247 22.3424C6.65607 22.3424 6.32967 22.3232 6.00647 22.2816C7.87527 23.488 10.0609 24.128 12.2881 24.1248" fill="white"/>
</svg>
