<svg width="48" height="48" viewBox="0 0 48 48" fill="none" xmlns="http://www.w3.org/2000/svg">
<path d="M24 48C10.7472 48 0 37.2528 0 24C0 10.7472 10.7472 0 24 0C37.2528 0 48 10.7472 48 24C48 37.2528 37.2528 48 24 48Z" fill="#25D366"/>
<path fill-rule="evenodd" clip-rule="evenodd" d="M35.2274 12.8256C32.2514 9.84476 28.2866 8.20316 24.0674 8.19836C15.3746 8.19836 8.29464 15.2736 8.29464 23.9712C8.29464 26.7504 9.01944 29.4672 10.4018 31.8576L8.16504 40.032L16.5266 37.8384C18.8306 39.096 21.4226 39.7584 24.0626 39.7584H24.0674C32.7602 39.7584 39.8354 32.6832 39.8402 23.9856C39.845 19.7712 38.2082 15.8064 35.2274 12.8256ZM24.0722 37.0944H24.0674C21.7154 37.0944 19.4066 36.4608 17.3954 35.2656L16.9154 34.9824L11.9522 36.2832L13.277 31.4448L12.965 30.9504C11.6546 28.8624 10.9586 26.4528 10.9586 23.9712C10.9634 16.7424 16.8434 10.8624 24.077 10.8624C27.581 10.8624 30.869 12.2304 33.3458 14.7072C35.8226 17.184 37.1858 20.4816 37.181 23.9808C37.181 31.2144 31.2962 37.0944 24.0722 37.0944ZM31.2626 27.2736C30.869 27.0768 28.9298 26.1216 28.5698 25.992C28.2098 25.8624 27.9458 25.7952 27.6818 26.1888C27.4178 26.5824 26.6642 27.4704 26.4338 27.7344C26.2034 27.9984 25.973 28.032 25.5794 27.8352C25.1858 27.6384 23.9138 27.2208 22.4114 25.8768C21.2402 24.8304 20.4482 23.5392 20.2178 23.1456C19.9874 22.752 20.1938 22.536 20.3906 22.3392C20.5682 22.1616 20.7842 21.8784 20.981 21.648C21.1778 21.4176 21.245 21.2544 21.3746 20.9904C21.5042 20.7264 21.4418 20.496 21.341 20.2992C21.2402 20.1024 20.453 18.1632 20.1266 17.3712C19.805 16.6032 19.4834 16.7088 19.2386 16.6944C19.0082 16.6848 18.7442 16.68 18.485 16.68C18.221 16.68 17.7938 16.7808 17.4338 17.1744C17.0738 17.568 16.0562 18.5232 16.0562 20.4624C16.0562 22.4016 17.4674 24.2784 17.6642 24.5376C17.861 24.8016 20.4434 28.7808 24.3986 30.4896C25.3394 30.8976 26.0738 31.1376 26.645 31.32C27.5906 31.6224 28.4498 31.5792 29.1266 31.4784C29.885 31.3632 31.4594 30.5232 31.7858 29.6064C32.1122 28.6848 32.1122 27.8976 32.0162 27.7344C31.9202 27.5712 31.6562 27.4752 31.2626 27.2736Z" fill="white"/>
</svg>
