<svg xmlns="http://www.w3.org/2000/svg" width="48" height="48" viewBox="0 0 48 48" fill="#ffffff"><path d="M40.922 6.975C36.431 2.475 30.459 0 24.094 0 10.988 0 .319 10.669.319 23.784a23.74 23.74 0 0 0 3.178 11.888L.122 48l12.609-3.309a23.775 23.775 0 0 0 11.362 2.897h.009c13.106 0 23.784-10.669 23.784-23.784 0-6.356-2.475-12.328-6.966-16.828zm-16.819 36.6c-3.553 0-7.031-.956-10.069-2.756l-.722-.431-7.481 1.959 1.997-7.294-.469-.75a19.633 19.633 0 0 1-3.028-10.519c0-10.903 8.869-19.772 19.781-19.772A19.653 19.653 0 0 1 38.09 9.806a19.666 19.666 0 0 1 5.784 13.987c-.009 10.913-8.878 19.781-19.772 19.781zm10.838-14.812c-.591-.3-3.516-1.734-4.059-1.931s-.938-.3-1.341.3c-.394.591-1.538 1.931-1.884 2.334-.347.394-.694.45-1.284.15s-2.513-.928-4.781-2.953c-1.763-1.575-2.962-3.525-3.309-4.116s-.037-.919.263-1.209c.272-.263.591-.694.891-1.041s.394-.591.591-.994c.197-.394.103-.741-.047-1.041s-1.341-3.225-1.828-4.416c-.478-1.162-.975-1.003-1.341-1.022-.347-.019-.741-.019-1.134-.019s-1.041.15-1.584.741c-.544.591-2.081 2.034-2.081 4.959s2.128 5.747 2.428 6.15c.3.394 4.191 6.403 10.153 8.972a37.22 37.22 0 0 0 3.384 1.256c1.425.45 2.719.384 3.741.234 1.144-.169 3.516-1.434 4.013-2.822s.497-2.578.347-2.822c-.141-.263-.534-.413-1.134-.713z"/></svg>